<?xml version="1.0" encoding="UTF-8"?>
<svg width="498px" height="422px" viewBox="0 0 498 422" version="1.1" xmlns="http://www.w3.org/2000/svg" xmlns:xlink="http://www.w3.org/1999/xlink">
    <title>Group 4</title>
    <defs>
        <filter x="-145.8%" y="-145.8%" width="391.7%" height="391.7%" filterUnits="objectBoundingBox" id="filter-1">
            <feOffset dx="1" dy="2" in="SourceAlpha" result="shadowOffsetOuter1"></feOffset>
            <feGaussianBlur stdDeviation="8" in="shadowOffsetOuter1" result="shadowBlurOuter1"></feGaussianBlur>
            <feColorMatrix values="0 0 0 0 0.381617097   0 0 0 0 0.0867247785   0 0 0 0 0.962834013  0 0 0 1 0" type="matrix" in="shadowBlurOuter1" result="shadowMatrixOuter1"></feColorMatrix>
            <feMerge>
                <feMergeNode in="shadowMatrixOuter1"></feMergeNode>
                <feMergeNode in="SourceGraphic"></feMergeNode>
            </feMerge>
        </filter>
        <linearGradient x1="50%" y1="100%" x2="50%" y2="-2.48949813e-15%" id="linearGradient-2">
            <stop stop-color="#402992" offset="0%"></stop>
            <stop stop-color="#5F31A3" offset="100%"></stop>
        </linearGradient>
        <filter x="-13.4%" y="-21.8%" width="126.7%" height="143.5%" filterUnits="objectBoundingBox" id="filter-3">
            <feOffset dx="0" dy="1" in="SourceAlpha" result="shadowOffsetOuter1"></feOffset>
            <feGaussianBlur stdDeviation="10" in="shadowOffsetOuter1" result="shadowBlurOuter1"></feGaussianBlur>
            <feColorMatrix values="0 0 0 0 0   0 0 0 0 0.318837413   0 0 0 0 1  0 0 0 0.2 0" type="matrix" in="shadowBlurOuter1" result="shadowMatrixOuter1"></feColorMatrix>
            <feMerge>
                <feMergeNode in="shadowMatrixOuter1"></feMergeNode>
                <feMergeNode in="SourceGraphic"></feMergeNode>
            </feMerge>
        </filter>
        <filter x="0.0%" y="0.0%" width="100.0%" height="100.0%" filterUnits="objectBoundingBox" id="filter-4">
            <feGaussianBlur stdDeviation="0" in="SourceGraphic"></feGaussianBlur>
        </filter>
    </defs>
    <g id="Page-1" stroke="none" stroke-width="1" fill="none" fill-rule="evenodd">
        <g id="Group-4">
            <g id="Group-2">
                <rect id="Rectangle" fill="#FFFFFF" x="0" y="0" width="498" height="422"></rect>
                <rect id="Rectangle" fill="#FAFAFA" x="0" y="268" width="498" height="154"></rect>
                <g id="Group" transform="translate(197.000000, 289.000000)" fill="#D8D8D8">
                    <g transform="translate(35.000000, 37.000000)" id="divider">
                        <rect id="Rectangle" x="0" y="0" width="35" height="1"></rect>
                    </g>
                    <g id="title">
                        <polygon id="Rectangle" points="0 0 104 0 104 10 0 10"></polygon>
                    </g>
                    <g id="title2" transform="translate(7.000000, 15.000000)">
                        <rect id="Rectangle" x="0" y="0" width="90" height="7.92"></rect>
                    </g>
                </g>
                <rect id="Rectangle-3" fill="#FFFFFF" x="0" y="45" width="498" height="232"></rect>
                <line x1="0.5" y1="44.5" x2="497.5" y2="44.5" id="Line" stroke="#979797" opacity="0.25" stroke-linecap="square"></line>
                <line x1="0.5" y1="276.5" x2="497.5" y2="276.5" id="Line-2" stroke="#979797" opacity="0.245140439" stroke-linecap="square"></line>
                <g id="title" transform="translate(102.000000, 138.000000)" fill="#D8D8D8" style="mix-blend-mode: multiply;">
                    <polygon id="Rectangle" points="0 0 294 0 294 30 0 30"></polygon>
                </g>
                <g id="title" transform="translate(197.000000, 211.000000)" fill="#D8D8D8" style="mix-blend-mode: multiply;">
                    <polygon id="Rectangle" points="0 0 104 0 104 10 0 10"></polygon>
                </g>
                <g id="title" transform="translate(159.000000, 195.000000)" fill="#D8D8D8" style="mix-blend-mode: multiply;">
                    <polygon id="Rectangle" points="0 0 180 0 180 11 0 11"></polygon>
                </g>
                <g id="Group-8" transform="translate(29.000000, 355.000000)" fill="#D8D8D8">
                    <g id="Group-2">
                        <rect id="Rectangle" x="0" y="0" width="128" height="5.22222222"></rect>
                        <rect id="Rectangle" x="0" y="10.4444444" width="128" height="5.22222222"></rect>
                        <rect id="Rectangle" x="0" y="20.8888889" width="128" height="5.22222222"></rect>
                        <rect id="Rectangle" x="0" y="31.3333333" width="128" height="5.22222222"></rect>
                        <rect id="Rectangle" x="0" y="41.7777778" width="94.7532468" height="5.22222222"></rect>
                    </g>
                    <g id="Group-2" transform="translate(166.000000, 0.000000)">
                        <rect id="Rectangle" x="0" y="0" width="127" height="5.22222222"></rect>
                        <rect id="Rectangle" x="0" y="10.4444444" width="127" height="5.22222222"></rect>
                        <rect id="Rectangle" x="0" y="20.8888889" width="127" height="5.22222222"></rect>
                        <rect id="Rectangle" x="0" y="31.3333333" width="127" height="5.22222222"></rect>
                        <rect id="Rectangle" x="0" y="41.7777778" width="94.012987" height="5.22222222"></rect>
                    </g>
                    <g id="Group-2" transform="translate(318.000000, 0.000000)">
                        <rect id="Rectangle" x="0" y="0" width="127" height="5.22222222"></rect>
                        <rect id="Rectangle" x="0" y="10.4444444" width="127" height="5.22222222"></rect>
                        <rect id="Rectangle" x="0" y="20.8888889" width="127" height="5.22222222"></rect>
                        <rect id="Rectangle" x="0" y="31.3333333" width="127" height="5.22222222"></rect>
                        <rect id="Rectangle" x="0" y="41.7777778" width="94.012987" height="5.22222222"></rect>
                    </g>
                </g>
            </g>
            <g id="address-bar-components" transform="translate(20.000000, 11.000000)">
                <rect id="Rectangle" stroke="#979797" fill="#FFFFFF" opacity="0.4" x="63.5" y="0.5" width="202" height="23" rx="2"></rect>
                <rect id="Rectangle" fill="#D8D8D8" x="72" y="10" width="149" height="6" rx="2"></rect>
                <g id="Group" transform="translate(0.000000, 7.000000)" stroke-width="0.5">
                    <g id="Windows-/-x-/-Window-Controls-/-Toolbar---Default-/-Aqua">
                        <ellipse id="Zoom" stroke="#1BAC2C" fill="#2ACB42" cx="38.0384615" cy="5" rx="4.71153846" ry="4.75"></ellipse>
                        <ellipse id="Minimise" stroke="#DFA023" fill="#FFC12F" cx="21.5" cy="5" rx="4.71153846" ry="4.75"></ellipse>
                        <ellipse id="Close" stroke="#E24640" fill="#FF6157" cx="4.96153846" cy="5" rx="4.71153846" ry="4.75"></ellipse>
                    </g>
                </g>
                <g id="Group-5" filter="url(#filter-1)" transform="translate(302.000000, 0.000000)">
                    <rect id="Background" fill="url(#linearGradient-2)" x="0" y="0" width="24" height="24" rx="2"></rect>
                    <g id="Glyph" transform="translate(6.000000, 3.000000)">
                        <polygon id="Head-Base" fill="#FFFFFF" style="mix-blend-mode: overlay;" transform="translate(6.430357, 8.381944) rotate(-180.000000) translate(-6.430357, -8.381944) " points="0 -3.12675811e-13 6.43035714 5.58796296 12.8607143 -4.49238833e-13 12.8607143 16.7638889 6.43035714 16.7638889 0 16.7638889"></polygon>
                        <polygon id="Ears/Nose" fill="#FFFFFF" style="mix-blend-mode: soft-light;" transform="translate(6.430357, 5.595833) rotate(-360.000000) translate(-6.430357, -5.595833) " points="0 0 6.43035714 11.1916667 12.8607143 0 6.43035714 5.02856953"></polygon>
                        <path d="M0,-3.41060513e-13 L6.43035714,11.1916667 L0,2.40084025 L0,-3.41060513e-13 Z M12.8607143,-3.41060513e-13 L12.8607143,2.40103286 L6.43035714,11.1916667 L12.8607143,-3.41060513e-13 Z" id="Shadows" fill-opacity="0.25" fill="#000000" style="mix-blend-mode: overlay;"></path>
                    </g>
                </g>
            </g>
            <g id="popup" filter="url(#filter-3)" transform="translate(182.000000, 35.000000)">
                <path d="M152,0.624992969 L162.500337,8.5 L301,8.5 C301.414214,8.5 301.789214,8.66789322 302.06066,8.93933983 C302.332107,9.21078644 302.5,9.58578644 302.5,10 L302.5,10 L302.5,184 C302.5,184.414214 302.332107,184.789214 302.06066,185.06066 C301.789214,185.332107 301.414214,185.5 301,185.5 L301,185.5 L2,185.5 C1.58578644,185.5 1.21078644,185.332107 0.939339828,185.06066 C0.667893219,184.789214 0.5,184.414214 0.5,184 L0.5,184 L0.5,10 C0.5,9.58578644 0.667893219,9.21078644 0.939339828,8.93933983 C1.21078644,8.66789322 1.58578644,8.5 2,8.5 L2,8.5 L141.499663,8.5 L152,0.624992969 Z" id="Combined-Shape" stroke-opacity="0.5" stroke="#BBBBBB" fill="#FFFFFF" filter="url(#filter-4)"></path>
                <rect id="Rectangle" fill="#48C774" x="28" y="60" width="230" height="28" rx="2"></rect>
                <text id="/Computer-Science/Pr" font-family="Avenir-Book, Avenir" font-size="12" font-weight="normal" fill="#FFFFFF">
                    <tspan x="53" y="78">/Computer Science/Programming</tspan>
                </text>
                <text id="Category:" font-family="Avenir-Book, Avenir" font-size="12" font-weight="normal" fill="#000000">
                    <tspan x="28" y="45">Category:</tspan>
                </text>
                <text id="Tags:" font-family="Avenir-Book, Avenir" font-size="12" font-weight="normal" fill="#000000">
                    <tspan x="28" y="115">Tags:</tspan>
                </text>
                <rect id="Rectangle" fill="#077CFF" x="28" y="129" width="83" height="28" rx="2"></rect>
                <text id="javascript" font-family="Avenir-Book, Avenir" font-size="12" font-weight="normal" fill="#FFFFFF">
                    <tspan x="44" y="147">javascript</tspan>
                </text>
                <rect id="Rectangle-Copy" fill="#077CFF" x="128" y="129" width="83" height="28" rx="2"></rect>
                <text id="array" font-family="Avenir-Book, Avenir" font-size="12" font-weight="normal" fill="#FFFFFF">
                    <tspan x="156" y="147">array</tspan>
                </text>
            </g>
        </g>
    </g>
</svg>