<?xml version="1.0" encoding="UTF-8"?>
<svg width="400px" height="150px" viewBox="0 0 400 150" version="1.1" xmlns="http://www.w3.org/2000/svg" xmlns:xlink="http://www.w3.org/1999/xlink">
    <title>Group 2</title>
    <defs>
        <filter id="filter-1">
            <feColorMatrix in="SourceGraphic" type="matrix" values="0 0 0 0 0.686975 0 0 0 0 0.719294 0 0 0 0 0.979393 0 0 0 1.000000 0"></feColorMatrix>
        </filter>
        <rect id="path-2" x="0" y="0" width="315" height="20" rx="3"></rect>
        <filter x="-0.2%" y="-2.5%" width="100.3%" height="105.0%" filterUnits="objectBoundingBox" id="filter-3">
            <feMorphology radius="1" operator="erode" in="SourceAlpha" result="shadowSpreadInner1"></feMorphology>
            <feOffset dx="0" dy="0" in="shadowSpreadInner1" result="shadowOffsetInner1"></feOffset>
            <feComposite in="shadowOffsetInner1" in2="SourceAlpha" operator="arithmetic" k2="-1" k3="1" result="shadowInnerInner1"></feComposite>
            <feColorMatrix values="0 0 0 0 0   0 0 0 0 0   0 0 0 0 0  0 0 0 0.05 0" type="matrix" in="shadowInnerInner1"></feColorMatrix>
        </filter>
    </defs>
    <g id="Page-1" stroke="none" stroke-width="1" fill="none" fill-rule="evenodd">
        <g id="Group-2">
            <rect id="Rectangle" fill="#FFFFFF" x="0" y="0" width="400" height="150"></rect>
            <g id="Group" transform="translate(43.000000, 21.000000)">
                <g transform="translate(0.000000, 33.000000)" id="paragraph/1col" filter="url(#filter-1)">
                    <g id="Group-2" fill="#D8D8D8">
                        <rect id="Rectangle" x="0" y="0" width="315" height="8.33333333"></rect>
                        <rect id="Rectangle" x="0" y="16.6666667" width="315" height="8.33333333"></rect>
                        <rect id="Rectangle" x="0" y="33.3333333" width="315" height="8.33333333"></rect>
                        <rect id="Rectangle" x="0" y="50" width="315" height="8.33333333"></rect>
                        <rect id="Rectangle" x="0" y="66.6666667" width="233.181818" height="8.33333333"></rect>
                    </g>
                </g>
                <g id="Fields-and-Labels-/-Search-Field-/-Normal-/-Aqua">
                    <g id="Field">
                        <use fill="#FFFFFF" fill-rule="evenodd" xlink:href="#path-2"></use>
                        <use fill="black" fill-opacity="1" filter="url(#filter-3)" xlink:href="#path-2"></use>
                        <rect stroke="#B9B9B9" stroke-width="0.5" stroke-linejoin="square" x="0.25" y="0.25" width="314.5" height="19.5" rx="3"></rect>
                    </g>
                    <g id="Group" transform="translate(119.010870, 2.000000)">
                        <path d="M5.19492291,2 C8.06399961,2 10.3898458,4.32589592 10.3898458,7.19503394 C10.3898458,8.44248525 9.95017735,9.58724429 9.21735275,10.4827956 L12.6428055,13.9081325 L11.9081325,14.6428055 L8.4826143,11.2175497 C7.58708214,11.95039 6.44234756,12.3900679 5.19492291,12.3900679 C2.32584621,12.3900679 0,10.064172 0,7.19503394 C0,4.32589592 2.32584621,2 5.19492291,2 Z M5.19492291,3.03900679 C2.89966155,3.03900679 1.03898458,4.89972352 1.03898458,7.19503394 C1.03898458,9.49034435 2.89966155,11.3510611 5.19492291,11.3510611 C7.49018427,11.3510611 9.35086124,9.49034435 9.35086124,7.19503394 C9.35086124,4.89972352 7.49018427,3.03900679 5.19492291,3.03900679 Z" id="Filter-Icon" fill="#595959"></path>
                        <text id="Search" font-family="Helvetica" font-size="13" font-weight="normal" letter-spacing="-0.0799999982" fill="#000000" fill-opacity="0.30004529">
                            <tspan x="17.5" y="13.5">Search</tspan>
                        </text>
                    </g>
                </g>
            </g>
        </g>
    </g>
</svg>